<?xml version="1.0" encoding="UTF-8" standalone="no"?>
<svg
   xmlns:dc="http://purl.org/dc/elements/1.1/"
   xmlns:cc="http://creativecommons.org/ns#"
   xmlns:rdf="http://www.w3.org/1999/02/22-rdf-syntax-ns#"
   xmlns:svg="http://www.w3.org/2000/svg"
   xmlns="http://www.w3.org/2000/svg"
   xmlns:sodipodi="http://sodipodi.sourceforge.net/DTD/sodipodi-0.dtd"
   xmlns:inkscape="http://www.inkscape.org/namespaces/inkscape"
   viewBox="0 0 25 27.41"
   version="1.1"
   xml:space="preserve"
   style="fill-rule:evenodd;stroke-linejoin:round;stroke-miterlimit:1.41420996"
   x="0px"
   y="0px"
   clip-rule="evenodd"
   stroke-miterlimit="1.41421"
   id="svg3861"
   inkscape:version="0.48.5 r10040"
   width="100%"
   height="100%"
   sodipodi:docname="lock.svg"><metadata
     id="metadata3885"><rdf:RDF><cc:Work
         rdf:about=""><dc:format>image/svg+xml</dc:format><dc:type
           rdf:resource="http://purl.org/dc/dcmitype/StillImage" /></cc:Work></rdf:RDF></metadata><defs
     id="defs3883" /><sodipodi:namedview
     pagecolor="#ffffff"
     bordercolor="#666666"
     borderopacity="1"
     objecttolerance="10"
     gridtolerance="10"
     guidetolerance="10"
     inkscape:pageopacity="0"
     inkscape:pageshadow="2"
     inkscape:window-width="1112"
     inkscape:window-height="815"
     id="namedview3881"
     showgrid="false"
     fit-margin-top="0"
     fit-margin-left="0"
     fit-margin-right="0"
     fit-margin-bottom="0"
     inkscape:zoom="10.986912"
     inkscape:cx="27.639599"
     inkscape:cy="14.700475"
     inkscape:window-x="0"
     inkscape:window-y="0"
     inkscape:window-maximized="0"
     inkscape:current-layer="svg3861" /><g
     transform="matrix(0.40475941,0,0,0.3469366,-5.241735,-0.47497786)"
     id="g3863"><path
       d="m 62.047,35.788 c 0.212,0.018 0.416,0.06 0.616,0.146 0.542,0.232 0.988,0.727 1.213,1.348 0.068,0.186 0.116,0.382 0.142,0.583 0.014,0.109 0.014,0.136 0.021,0.246 0.287,13.219 0.003,26.445 0.003,39.668 -0.006,0.243 -0.033,0.48 -0.095,0.713 -0.182,0.684 -0.624,1.251 -1.188,1.53 -0.16,0.079 -0.329,0.135 -0.5,0.165 -0.094,0.017 -0.117,0.017 -0.212,0.026 -12.329,0.363 -24.667,0.002 -37,0.002 -0.209,-0.006 -0.412,-0.037 -0.612,-0.11 C 23.85,79.892 23.363,79.377 23.124,78.718 23.056,78.532 23.008,78.336 22.982,78.135 22.968,78.026 22.968,77.999 22.961,77.889 22.674,64.67 22.958,51.444 22.958,38.221 c 0.006,-0.243 0.033,-0.48 0.095,-0.713 0.182,-0.684 0.624,-1.251 1.188,-1.53 0.16,-0.079 0.329,-0.135 0.5,-0.165 0.094,-0.017 0.117,-0.017 0.212,-0.025 12.361,-0.366 24.733,-0.366 37.094,0 z m -36.974,2.427 c -0.012,10e-4 -0.019,-0.002 -0.026,0.008 -0.003,0.004 -0.005,0.007 -0.005,0.012 -0.285,13.167 0,26.342 0,39.513 0,0.011 -0.002,0.02 0.004,0.028 0.003,0.004 0.006,0.007 0.011,0.008 12.254,1.089 24.58,10e-4 36.87,10e-4 0.009,0 0.017,0.001 0.024,-0.005 0.003,-0.004 0.006,-0.008 0.007,-0.013 0.857,-13.134 0,-26.343 0,-39.515 0,-0.011 0.002,-0.02 -0.004,-0.028 -0.003,-0.004 -0.006,-0.007 -0.011,-0.008 -12.255,-1.088 -24.58,-10e-4 -36.87,-10e-4 z"
       style="fill:#000000;fill-rule:nonzero"
       id="path3865"
       inkscape:connector-curvature="0" /></g><g
     transform="matrix(0.40475941,0,0,0.40475941,-4.6352511,-3.5334037)"
     id="g3867"
     style="fill:#ff2a2a"><path
       d="m 25.935,40 c 0.007,-5.078 0.023,-10.155 0.023,-15.233 0.004,-0.614 0.035,-1.226 0.105,-1.836 0.136,-1.189 0.406,-2.361 0.803,-3.489 0.753,-2.135 1.963,-4.1 3.524,-5.737 1.694,-1.777 3.792,-3.157 6.096,-4.002 C 37.607,9.292 38.775,9.008 39.959,8.858 40.5,8.789 41.042,8.751 41.587,8.734 41.794,8.73 42,8.729 42.207,8.73 c 0.613,0.012 1.225,0.05 1.834,0.128 1.184,0.15 2.352,0.434 3.473,0.845 2.365,0.867 4.512,2.298 6.228,4.142 1.498,1.609 2.661,3.523 3.392,5.597 0.397,1.128 0.667,2.3 0.803,3.489 0.062,0.542 0.093,1.087 0.103,1.632 0.033,5.146 0.031,10.291 0.023,15.437 l -2.06,0 C 56.005,34.863 55.99,29.726 55.957,24.59 55.948,24.114 55.921,23.64 55.867,23.167 55.749,22.134 55.515,21.115 55.169,20.134 54.533,18.33 53.52,16.664 52.217,15.264 50.724,13.66 48.855,12.414 46.797,11.659 45.822,11.302 44.808,11.055 43.778,10.924 43.247,10.857 42.715,10.823 42.181,10.813 42,10.812 42,10.812 41.819,10.813 c -0.534,0.01 -1.066,0.044 -1.597,0.111 -1.03,0.131 -2.044,0.378 -3.019,0.735 -2.006,0.735 -3.831,1.938 -5.305,3.483 -1.359,1.425 -2.412,3.135 -3.067,4.992 -0.346,0.981 -0.58,2 -0.698,3.033 -0.054,0.473 -0.081,0.947 -0.09,1.423 C 28.01,29.726 27.995,34.863 27.997,40 l -2.062,0 z"
       style="fill:#ff2a2a"
       id="path3869"
       inkscape:connector-curvature="0" /></g><g
     transform="matrix(0.40475941,0,0,0.40475941,-4.6345737,-3.5334037)"
     id="g3871"
     style="fill:#ff2a2a"><path
       d="m 30.108,40 c -0.004,-5.024 0.01,-10.049 0.042,-15.073 0.009,-0.453 0.037,-0.905 0.094,-1.355 0.112,-0.875 0.321,-1.737 0.625,-2.566 0.591,-1.613 1.538,-3.09 2.753,-4.305 1.214,-1.214 2.691,-2.161 4.305,-2.752 0.828,-0.304 1.69,-0.514 2.566,-0.625 0.399,-0.051 0.8,-0.079 1.202,-0.091 0.153,-0.003 0.305,-0.004 0.458,-0.003 0.453,0.008 0.905,0.037 1.354,0.094 0.876,0.111 1.738,0.321 2.566,0.625 1.703,0.624 3.253,1.644 4.504,2.956 1.153,1.209 2.047,2.661 2.603,4.238 0.294,0.833 0.493,1.7 0.594,2.578 0.046,0.401 0.068,0.803 0.076,1.206 0.032,5.024 0.046,10.049 0.041,15.073 l -2.083,0 C 51.812,34.984 51.798,29.969 51.767,24.953 51.761,24.62 51.742,24.289 51.704,23.958 51.621,23.235 51.457,22.522 51.215,21.836 50.757,20.536 50.02,19.339 49.069,18.342 48.038,17.261 46.76,16.419 45.357,15.905 44.675,15.655 43.965,15.482 43.244,15.391 42.873,15.343 42.5,15.32 42.126,15.313 42,15.312 42,15.312 41.874,15.313 c -0.333,0.006 -0.665,0.025 -0.996,0.063 -0.723,0.083 -1.436,0.247 -2.122,0.488 -1.3,0.459 -2.496,1.196 -3.493,2.147 -1.082,1.031 -1.924,2.309 -2.438,3.712 -0.25,0.682 -0.422,1.392 -0.514,2.112 -0.047,0.372 -0.071,0.744 -0.078,1.118 C 32.201,29.969 32.187,34.984 32.192,40 l -2.084,0 z"
       style="fill:#ff2a2a"
       id="path3873"
       inkscape:connector-curvature="0" /></g><path
     d="m 20.294514,12.261912 0,14.732058 -16.031296,0 0,-14.732058 16.031296,0 z m -7.895219,3.42224 c 0.331897,0.0086 0.659355,0.07058 0.966569,0.195913 0.582852,0.238403 1.070173,0.686084 1.357155,1.246252 0.113726,0.222212 0.195486,0.46023 0.242842,0.705111 0.05291,0.276835 0.06148,0.562597 0.02509,0.842711 -0.04058,0.315278 -0.138829,0.622497 -0.288981,0.903015 -0.120628,0.226235 -0.274432,0.434313 -0.454569,0.616441 -0.07573,0.07685 -0.156624,0.14775 -0.24042,0.215349 l -0.0071,0.0055 0,1.563993 c -0.0017,0.04066 -0.0017,0.04066 -0.0025,0.08121 -0.005,0.06898 -0.01122,0.137209 -0.02354,0.205211 -0.02622,0.145314 -0.07208,0.286983 -0.136406,0.420143 -0.136808,0.284141 -0.356187,0.525786 -0.62576,0.689306 -0.14814,0.08982 -0.310448,0.156237 -0.47923,0.195502 -0.161904,0.0374 -0.329066,0.04969 -0.494614,0.03693 -0.174537,-0.01377 -0.347771,-0.05544 -0.510079,-0.124205 -0.180917,-0.07752 -0.348087,-0.187604 -0.490968,-0.323616 -0.152189,-0.145286 -0.276044,-0.319349 -0.362662,-0.510792 -0.06679,-0.147351 -0.111311,-0.30479 -0.131548,-0.465467 -0.009,-0.06833 -0.01253,-0.136423 -0.01333,-0.205228 l 0,-1.563995 c -0.03355,-0.02626 -0.06633,-0.05398 -0.09871,-0.08163 -0.03036,-0.0266 -0.06032,-0.05395 -0.08944,-0.08122 -0.07768,-0.0751 -0.151346,-0.153211 -0.220153,-0.236186 -0.163528,-0.198756 -0.297904,-0.421377 -0.397882,-0.658546 -0.119017,-0.283342 -0.18742,-0.587297 -0.202395,-0.894521 -0.01333,-0.276436 0.01618,-0.554922 0.08863,-0.822048 0.07042,-0.259858 0.180926,-0.50798 0.32583,-0.734254 0.293452,-0.457383 0.726543,-0.819219 1.229661,-1.024835 0.296688,-0.121409 0.612403,-0.184976 0.932563,-0.195105 0.03406,-0.0022 0.06792,-0.0022 0.10199,-0.0022 z m -0.05757,0.843145 c -0.218165,0.0055 -0.434314,0.04479 -0.637907,0.125021 -0.440781,0.17406 -0.802631,0.523343 -0.99287,0.957659 -0.06839,0.156229 -0.114151,0.322195 -0.135598,0.491801 -0.02589,0.201144 -0.01781,0.406763 0.0243,0.605523 0.04455,0.209634 0.127087,0.411238 0.24245,0.59213 0.09876,0.155058 0.221402,0.294698 0.362261,0.413267 0.05706,0.04805 0.117375,0.0924 0.17971,0.133583 l 0.02589,0.01879 c 0.02187,0.01806 0.02753,0.02243 0.04738,0.0427 0.051,0.05434 0.08742,0.121795 0.10444,0.194708 0.0075,0.03141 0.0096,0.06269 0.01085,0.09501 0,0.599044 -0.0075,1.1985 0,1.797537 0.0042,0.105719 0.02629,0.20886 0.06958,0.30519 0.09553,0.210876 0.283333,0.373593 0.505951,0.436735 0.08378,0.02403 0.171214,0.03372 0.257832,0.0292 0.0854,-0.0055 0.170001,-0.02247 0.249329,-0.05399 0.08905,-0.03536 0.171618,-0.08658 0.242453,-0.150974 0.07528,-0.06898 0.137623,-0.15177 0.182141,-0.243654 0.04861,-0.101197 0.07319,-0.210472 0.07775,-0.322606 0.0083,-0.599038 0,-1.198493 0,-1.797538 0.0015,-0.02818 0.0014,-0.03576 0.0059,-0.0635 0.01124,-0.07419 0.04258,-0.144509 0.08943,-0.202393 0.02078,-0.02509 0.04375,-0.04603 0.06835,-0.06666 0.03929,-0.02821 0.08011,-0.05494 0.119403,-0.0839 0.198747,-0.150154 0.367132,-0.33634 0.491392,-0.552902 0.107659,-0.186593 0.180524,-0.392602 0.21533,-0.605514 0.03269,-0.201575 0.03108,-0.409211 -0.0058,-0.61037 -0.02982,-0.167084 -0.08371,-0.329792 -0.159383,-0.481564 -0.19099,-0.384533 -0.51965,-0.694147 -0.915104,-0.861735 -0.20076,-0.08497 -0.414475,-0.130715 -0.631833,-0.14045 -0.03106,-0.0022 -0.06237,-0.0023 -0.09349,-0.0023 z"
     style="fill:#ff0000"
     id="path3875"
     inkscape:connector-curvature="0" /></svg>