<?xml version="1.0" encoding="UTF-8" standalone="no"?>
<svg
   xmlns:dc="http://purl.org/dc/elements/1.1/"
   xmlns:cc="http://creativecommons.org/ns#"
   xmlns:rdf="http://www.w3.org/1999/02/22-rdf-syntax-ns#"
   xmlns:svg="http://www.w3.org/2000/svg"
   xmlns="http://www.w3.org/2000/svg"
   xmlns:sodipodi="http://sodipodi.sourceforge.net/DTD/sodipodi-0.dtd"
   xmlns:inkscape="http://www.inkscape.org/namespaces/inkscape"
   viewBox="0 0 26.770141 26.769144"
   version="1.1"
   xml:space="preserve"
   style="fill-rule:evenodd;stroke-linejoin:round;stroke-miterlimit:1.41420996"
   x="0px"
   y="0px"
   clip-rule="evenodd"
   stroke-miterlimit="1.41421"
   id="svg3861"
   inkscape:version="0.48.5 r10040"
   width="100%"
   height="100%"
   sodipodi:docname="lock_r.svg"><metadata
     id="metadata3885"><rdf:RDF><cc:Work
         rdf:about=""><dc:format>image/svg+xml</dc:format><dc:type
           rdf:resource="http://purl.org/dc/dcmitype/StillImage" /><dc:title /></cc:Work></rdf:RDF></metadata><defs
     id="defs3883" /><sodipodi:namedview
     pagecolor="#ffffff"
     bordercolor="#666666"
     borderopacity="1"
     objecttolerance="10"
     gridtolerance="10"
     guidetolerance="10"
     inkscape:pageopacity="0"
     inkscape:pageshadow="2"
     inkscape:window-width="1112"
     inkscape:window-height="815"
     id="namedview3881"
     showgrid="false"
     fit-margin-top="0"
     fit-margin-left="0"
     fit-margin-right="0"
     fit-margin-bottom="0"
     inkscape:zoom="10.986912"
     inkscape:cx="-2.4412006"
     inkscape:cy="16.173411"
     inkscape:window-x="0"
     inkscape:window-y="0"
     inkscape:window-maximized="0"
     inkscape:current-layer="svg3861" /><g
     transform="matrix(0.28620812,-0.28620812,0.24532122,0.24532122,-10.884715,14.014503)"
     id="g3863"
     style="fill:#a5cf35;fill-opacity:1"><path
       d="m 62.047,35.788 c 0.212,0.018 0.416,0.06 0.616,0.146 0.542,0.232 0.988,0.727 1.213,1.348 0.068,0.186 0.116,0.382 0.142,0.583 0.014,0.109 0.014,0.136 0.021,0.246 0.287,13.219 0.003,26.445 0.003,39.668 -0.006,0.243 -0.033,0.48 -0.095,0.713 -0.182,0.684 -0.624,1.251 -1.188,1.53 -0.16,0.079 -0.329,0.135 -0.5,0.165 -0.094,0.017 -0.117,0.017 -0.212,0.026 -12.329,0.363 -24.667,0.002 -37,0.002 -0.209,-0.006 -0.412,-0.037 -0.612,-0.11 C 23.85,79.892 23.363,79.377 23.124,78.718 23.056,78.532 23.008,78.336 22.982,78.135 22.968,78.026 22.968,77.999 22.961,77.889 22.674,64.67 22.958,51.444 22.958,38.221 c 0.006,-0.243 0.033,-0.48 0.095,-0.713 0.182,-0.684 0.624,-1.251 1.188,-1.53 0.16,-0.079 0.329,-0.135 0.5,-0.165 0.094,-0.017 0.117,-0.017 0.212,-0.025 12.361,-0.366 24.733,-0.366 37.094,0 z m -36.974,2.427 c -0.012,10e-4 -0.019,-0.002 -0.026,0.008 -0.003,0.004 -0.005,0.007 -0.005,0.012 -0.285,13.167 0,26.342 0,39.513 0,0.011 -0.002,0.02 0.004,0.028 0.003,0.004 0.006,0.007 0.011,0.008 12.254,1.089 24.58,10e-4 36.87,10e-4 0.009,0 0.017,0.001 0.024,-0.005 0.003,-0.004 0.006,-0.008 0.007,-0.013 0.857,-13.134 0,-26.343 0,-39.515 0,-0.011 0.002,-0.02 -0.004,-0.028 -0.003,-0.004 -0.006,-0.007 -0.011,-0.008 -12.255,-1.088 -24.58,-10e-4 -36.87,-10e-4 z"
       style="fill:#a5cf35;fill-opacity:1;fill-rule:nonzero"
       id="path3865"
       inkscape:connector-curvature="0" /></g><g
     transform="matrix(0.28620812,-0.28620812,0.28620812,0.28620812,-12.618499,11.42302)"
     id="g3867"
     style="fill:#a5cf35;fill-opacity:1"><path
       d="m 25.935,40 c 0.007,-5.078 0.023,-10.155 0.023,-15.233 0.004,-0.614 0.035,-1.226 0.105,-1.836 0.136,-1.189 0.406,-2.361 0.803,-3.489 0.753,-2.135 1.963,-4.1 3.524,-5.737 1.694,-1.777 3.792,-3.157 6.096,-4.002 C 37.607,9.292 38.775,9.008 39.959,8.858 40.5,8.789 41.042,8.751 41.587,8.734 41.794,8.73 42,8.729 42.207,8.73 c 0.613,0.012 1.225,0.05 1.834,0.128 1.184,0.15 2.352,0.434 3.473,0.845 2.365,0.867 4.512,2.298 6.228,4.142 1.498,1.609 2.661,3.523 3.392,5.597 0.397,1.128 0.667,2.3 0.803,3.489 0.062,0.542 0.093,1.087 0.103,1.632 0.033,5.146 0.031,10.291 0.023,15.437 l -2.06,0 C 56.005,34.863 55.99,29.726 55.957,24.59 55.948,24.114 55.921,23.64 55.867,23.167 55.749,22.134 55.515,21.115 55.169,20.134 54.533,18.33 53.52,16.664 52.217,15.264 50.724,13.66 48.855,12.414 46.797,11.659 45.822,11.302 44.808,11.055 43.778,10.924 43.247,10.857 42.715,10.823 42.181,10.813 42,10.812 42,10.812 41.819,10.813 c -0.534,0.01 -1.066,0.044 -1.597,0.111 -1.03,0.131 -2.044,0.378 -3.019,0.735 -2.006,0.735 -3.831,1.938 -5.305,3.483 -1.359,1.425 -2.412,3.135 -3.067,4.992 -0.346,0.981 -0.58,2 -0.698,3.033 -0.054,0.473 -0.081,0.947 -0.09,1.423 C 28.01,29.726 27.995,34.863 27.997,40 l -2.062,0 z"
       style="fill:#a5cf35;fill-opacity:1"
       id="path3869"
       inkscape:connector-curvature="0" /></g><g
     transform="matrix(0.28620812,-0.28620812,0.28620812,0.28620812,-12.61802,11.422541)"
     id="g3871"
     style="fill:#a5cf35;fill-opacity:1"><path
       d="m 30.108,40 c -0.004,-5.024 0.01,-10.049 0.042,-15.073 0.009,-0.453 0.037,-0.905 0.094,-1.355 0.112,-0.875 0.321,-1.737 0.625,-2.566 0.591,-1.613 1.538,-3.09 2.753,-4.305 1.214,-1.214 2.691,-2.161 4.305,-2.752 0.828,-0.304 1.69,-0.514 2.566,-0.625 0.399,-0.051 0.8,-0.079 1.202,-0.091 0.153,-0.003 0.305,-0.004 0.458,-0.003 0.453,0.008 0.905,0.037 1.354,0.094 0.876,0.111 1.738,0.321 2.566,0.625 1.703,0.624 3.253,1.644 4.504,2.956 1.153,1.209 2.047,2.661 2.603,4.238 0.294,0.833 0.493,1.7 0.594,2.578 0.046,0.401 0.068,0.803 0.076,1.206 0.032,5.024 0.046,10.049 0.041,15.073 l -2.083,0 C 51.812,34.984 51.798,29.969 51.767,24.953 51.761,24.62 51.742,24.289 51.704,23.958 51.621,23.235 51.457,22.522 51.215,21.836 50.757,20.536 50.02,19.339 49.069,18.342 48.038,17.261 46.76,16.419 45.357,15.905 44.675,15.655 43.965,15.482 43.244,15.391 42.873,15.343 42.5,15.32 42.126,15.313 42,15.312 42,15.312 41.874,15.313 c -0.333,0.006 -0.665,0.025 -0.996,0.063 -0.723,0.083 -1.436,0.247 -2.122,0.488 -1.3,0.459 -2.496,1.196 -3.493,2.147 -1.082,1.031 -1.924,2.309 -2.438,3.712 -0.25,0.682 -0.422,1.392 -0.514,2.112 -0.047,0.372 -0.071,0.744 -0.078,1.118 C 32.201,29.969 32.187,34.984 32.192,40 l -2.084,0 z"
       style="fill:#a5cf35;fill-opacity:1"
       id="path3873"
       inkscape:connector-curvature="0" /></g><path
     d="M 16.178481,4.9639894 26.595619,15.381127 15.259781,26.716966 4.8426436,16.299827 16.178481,4.9639894 z m -3.162873,8.0026516 c 0.240767,-0.228605 0.516142,-0.416326 0.821998,-0.544936 0.580715,-0.243562 1.241862,-0.271592 1.840887,-0.07842 0.237544,0.07671 0.463661,0.187202 0.670304,0.326874 0.233165,0.158338 0.441289,0.354343 0.613628,0.578145 0.194241,0.251629 0.342005,0.538339 0.434188,0.842868 0.07467,0.245269 0.113053,0.501159 0.114461,0.757319 7.91e-4,0.10789 -0.0063,0.215225 -0.01773,0.322277 l -0.0011,0.0089 1.10591,1.10591 c 0.02755,0.02995 0.02755,0.02995 0.05566,0.05919 0.04524,0.05231 0.08909,0.104955 0.128461,0.161751 0.08421,0.121293 0.151959,0.253896 0.200632,0.39354 0.10418,0.297655 0.119924,0.623649 0.04493,0.929892 -0.04124,0.168263 -0.109044,0.329996 -0.200626,0.477107 -0.08804,0.140929 -0.197549,0.267821 -0.323632,0.375859 -0.133153,0.113679 -0.285113,0.206709 -0.448506,0.272854 -0.182743,0.07311 -0.378791,0.113478 -0.575998,0.118335 -0.210347,0.0049 -0.421007,-0.03062 -0.617625,-0.104743 -0.151421,-0.05697 -0.294228,-0.136811 -0.422154,-0.236117 -0.05468,-0.04195 -0.105325,-0.0876 -0.154544,-0.135692 l -1.105911,-1.105912 c -0.04229,0.0052 -0.08507,0.0087 -0.12752,0.01208 -0.04028,0.0027 -0.0808,0.0045 -0.120675,0.0058 -0.108031,0.0018 -0.215354,-0.0013 -0.32268,-0.01134 -0.256173,-0.02491 -0.508608,-0.08731 -0.747007,-0.184317 -0.284511,-0.116195 -0.547808,-0.282756 -0.775637,-0.489407 -0.204896,-0.186044 -0.380948,-0.40383 -0.518605,-0.643947 -0.133953,-0.233541 -0.231262,-0.48713 -0.288799,-0.749592 -0.115917,-0.530921 -0.06553,-1.093019 0.144834,-1.59417 0.123941,-0.295639 0.302236,-0.563832 0.521461,-0.797381 0.02253,-0.02564 0.04647,-0.04958 0.07056,-0.07367 z m 0.555485,0.636902 c -0.150377,0.158155 -0.275435,0.338778 -0.362665,0.539472 -0.1886,0.434758 -0.197487,0.937605 -0.0249,1.379232 0.06211,0.158829 0.147109,0.308543 0.251873,0.443638 0.123924,0.160537 0.275032,0.300218 0.445353,0.410987 0.179735,0.116732 0.380653,0.200925 0.590137,0.247261 0.179476,0.03981 0.364937,0.05183 0.548381,0.03607 0.07432,-0.0064 0.148333,-0.01766 0.221531,-0.03262 l 0.03159,-0.005 c 0.02823,-0.0027 0.03533,-0.0036 0.0637,-0.0033 0.07449,0.0024 0.147937,0.02431 0.21153,0.06383 0.02751,0.01691 0.05112,0.03754 0.07485,0.05951 0.423588,0.423588 0.842164,0.852771 1.271051,1.271051 0.07772,0.07179 0.166276,0.129096 0.265002,0.166601 0.216662,0.08156 0.464517,0.06382 0.66658,-0.04894 0.07623,-0.04225 0.14491,-0.09722 0.202962,-0.161667 0.0565,-0.06428 0.10432,-0.136098 0.138125,-0.214479 0.03796,-0.08797 0.06013,-0.182574 0.06469,-0.278195 0.0045,-0.102007 -0.01,-0.204632 -0.0435,-0.301082 -0.03719,-0.10593 -0.09707,-0.20058 -0.17314,-0.283095 -0.417715,-0.429453 -0.847462,-0.847462 -1.271051,-1.271051 -0.01887,-0.02099 -0.0243,-0.02628 -0.04073,-0.04907 -0.04451,-0.06041 -0.07207,-0.132292 -0.07988,-0.20635 -0.003,-0.03243 -0.0016,-0.06348 0.0012,-0.09547 0.0078,-0.04773 0.0178,-0.09549 0.0251,-0.143757 0.03436,-0.24671 0.02177,-0.49743 -0.04349,-0.738427 -0.05582,-0.208068 -0.149962,-0.405261 -0.275902,-0.580425 -0.119419,-0.16565 -0.267379,-0.311332 -0.435698,-0.427495 -0.139232,-0.09706 -0.29239,-0.174006 -0.453218,-0.227816 -0.406956,-0.136856 -0.858284,-0.123388 -1.256415,0.03774 -0.202041,0.08188 -0.385507,0.200649 -0.546086,0.34746 -0.02352,0.02041 -0.04573,0.04248 -0.06773,0.06448 z"
     style="fill:#a5cf35;fill-opacity:1"
     id="path3875"
     inkscape:connector-curvature="0" /></svg>