<?xml version="1.0" encoding="UTF-8" standalone="no"?>
<svg
   xmlns:dc="http://purl.org/dc/elements/1.1/"
   xmlns:cc="http://creativecommons.org/ns#"
   xmlns:rdf="http://www.w3.org/1999/02/22-rdf-syntax-ns#"
   xmlns:svg="http://www.w3.org/2000/svg"
   xmlns="http://www.w3.org/2000/svg"
   xmlns:sodipodi="http://sodipodi.sourceforge.net/DTD/sodipodi-0.dtd"
   xmlns:inkscape="http://www.inkscape.org/namespaces/inkscape"
   viewBox="0 0 33.982112 21.636057"
   version="1.1"
   xml:space="preserve"
   style="fill-rule:evenodd;stroke-linejoin:round;stroke-miterlimit:1.41420996"
   x="0px"
   y="0px"
   clip-rule="evenodd"
   stroke-miterlimit="1.41421"
   id="svg3917"
   inkscape:version="0.48.5 r10040"
   width="100%"
   height="100%"
   sodipodi:docname="unlocked.svg"><metadata
     id="metadata3945"><rdf:RDF><cc:Work
         rdf:about=""><dc:format>image/svg+xml</dc:format><dc:type
           rdf:resource="http://purl.org/dc/dcmitype/StillImage" /><dc:title></dc:title></cc:Work></rdf:RDF></metadata><defs
     id="defs3943" /><sodipodi:namedview
     pagecolor="#ffffff"
     bordercolor="#666666"
     borderopacity="1"
     objecttolerance="10"
     gridtolerance="10"
     guidetolerance="10"
     inkscape:pageopacity="0"
     inkscape:pageshadow="2"
     inkscape:window-width="1097"
     inkscape:window-height="480"
     id="namedview3941"
     showgrid="false"
     fit-margin-top="0"
     fit-margin-left="0"
     fit-margin-right="0"
     fit-margin-bottom="0"
     inkscape:zoom="11.313708"
     inkscape:cx="5.5270326"
     inkscape:cy="7.0670389"
     inkscape:window-x="243"
     inkscape:window-y="19"
     inkscape:window-maximized="0"
     inkscape:current-layer="svg3917" /><g
     transform="matrix(0.28208583,-0.28208583,0.24178789,0.24178789,-3.1304006,9.0651176)"
     id="g3919"><path
       d="m 62.047,35.788 c 0.212,0.018 0.416,0.06 0.616,0.146 0.542,0.232 0.988,0.727 1.213,1.348 0.068,0.186 0.116,0.382 0.142,0.583 0.014,0.109 0.014,0.136 0.021,0.246 0.287,13.219 0.003,26.445 0.003,39.668 -0.006,0.243 -0.033,0.48 -0.095,0.713 -0.182,0.684 -0.624,1.251 -1.188,1.53 -0.16,0.079 -0.329,0.135 -0.5,0.165 -0.094,0.017 -0.117,0.017 -0.212,0.026 -12.329,0.363 -24.667,0.002 -37,0.002 -0.209,-0.006 -0.412,-0.037 -0.612,-0.11 C 23.85,79.892 23.363,79.377 23.124,78.718 23.056,78.532 23.008,78.336 22.982,78.135 22.968,78.026 22.968,77.999 22.961,77.889 22.674,64.67 22.958,51.444 22.958,38.221 c 0.006,-0.243 0.033,-0.48 0.095,-0.713 0.182,-0.684 0.624,-1.251 1.188,-1.53 0.16,-0.079 0.329,-0.135 0.5,-0.165 0.094,-0.017 0.117,-0.017 0.212,-0.025 12.361,-0.366 24.733,-0.366 37.094,0 z m -36.974,2.427 c -0.012,10e-4 -0.019,-0.002 -0.026,0.008 -0.003,0.004 -0.005,0.007 -0.005,0.012 -0.285,13.167 0,26.342 0,39.513 0,0.011 -0.002,0.02 0.004,0.028 0.003,0.004 0.006,0.007 0.011,0.008 12.254,1.089 24.58,10e-4 36.87,10e-4 0.009,0 0.017,0.001 0.024,-0.005 0.003,-0.004 0.006,-0.008 0.007,-0.013 0.857,-13.134 0,-26.343 0,-39.515 0,-0.011 0.002,-0.02 -0.004,-0.028 -0.003,-0.004 -0.006,-0.007 -0.011,-0.008 -12.255,-1.088 -24.58,-10e-4 -36.87,-10e-4 z"
       style="fill:#000000;fill-rule:nonzero"
       id="path3921"
       inkscape:connector-curvature="0" /></g><g
     transform="matrix(0.28208583,-0.28208583,0.28208583,0.28208583,-12.436753,13.544332)"
     id="g3923"
     style="fill:#ff0000"><path
       d="m 25.935,40 c 0.007,-5.078 0.023,-10.155 0.023,-15.233 0.004,-0.614 0.035,-1.226 0.105,-1.836 0.136,-1.189 0.406,-2.361 0.803,-3.489 0.753,-2.135 1.963,-4.1 3.524,-5.737 1.694,-1.777 3.792,-3.157 6.096,-4.002 C 37.607,9.292 38.775,9.008 39.959,8.858 40.5,8.789 41.042,8.751 41.587,8.734 41.794,8.73 42,8.729 42.207,8.73 c 0.613,0.012 1.225,0.05 1.834,0.128 1.184,0.15 2.352,0.434 3.473,0.845 2.365,0.867 4.512,2.298 6.228,4.142 1.498,1.609 2.661,3.523 3.392,5.597 0.397,1.128 0.667,2.3 0.803,3.489 0.062,0.542 0.093,1.087 0.103,1.632 0.033,5.146 0.031,10.291 0.023,15.437 l -2.06,0 C 56.005,34.863 55.99,29.726 55.957,24.59 55.948,24.114 55.921,23.64 55.867,23.167 55.749,22.134 55.515,21.115 55.169,20.134 54.533,18.33 53.52,16.664 52.217,15.264 50.724,13.66 48.855,12.414 46.797,11.659 45.822,11.302 44.808,11.055 43.778,10.924 43.247,10.857 42.715,10.823 42.181,10.813 42,10.812 42,10.812 41.819,10.813 c -0.534,0.01 -1.066,0.044 -1.597,0.111 -1.03,0.131 -2.044,0.378 -3.019,0.735 -2.006,0.735 -3.831,1.938 -5.305,3.483 -1.359,1.425 -2.412,3.135 -3.067,4.992 -0.346,0.981 -0.58,2 -0.698,3.033 -0.054,0.473 -0.081,0.947 -0.09,1.423 C 28.01,29.726 27.995,34.863 27.997,40 l -2.062,0 z"
       style="fill:#ff0000"
       id="path3925"
       inkscape:connector-curvature="0" /></g><g
     transform="matrix(0.28208583,-0.28208583,0.28208583,0.28208583,-12.436274,13.543853)"
     id="g3927"
     style="fill:#ff2a2a"><path
       d="m 30.108,40 c -0.004,-5.024 0.01,-10.049 0.042,-15.073 0.009,-0.453 0.037,-0.905 0.094,-1.355 0.112,-0.875 0.321,-1.737 0.625,-2.566 0.591,-1.613 1.538,-3.09 2.753,-4.305 1.214,-1.214 2.691,-2.161 4.305,-2.752 0.828,-0.304 1.69,-0.514 2.566,-0.625 0.399,-0.051 0.8,-0.079 1.202,-0.091 0.153,-0.003 0.305,-0.004 0.458,-0.003 0.453,0.008 0.905,0.037 1.354,0.094 0.876,0.111 1.738,0.321 2.566,0.625 1.703,0.624 3.253,1.644 4.504,2.956 1.153,1.209 2.047,2.661 2.603,4.238 0.294,0.833 0.493,1.7 0.594,2.578 0.046,0.401 0.068,0.803 0.076,1.206 0.032,5.024 0.046,10.049 0.041,15.073 l -2.083,0 C 51.812,34.984 51.798,29.969 51.767,24.953 51.761,24.62 51.742,24.289 51.704,23.958 51.621,23.235 51.457,22.522 51.215,21.836 50.757,20.536 50.02,19.339 49.069,18.342 48.038,17.261 46.76,16.419 45.357,15.905 44.675,15.655 43.965,15.482 43.244,15.391 42.873,15.343 42.5,15.32 42.126,15.313 42,15.312 42,15.312 41.874,15.313 c -0.333,0.006 -0.665,0.025 -0.996,0.063 -0.723,0.083 -1.436,0.247 -2.122,0.488 -1.3,0.459 -2.496,1.196 -3.493,2.147 -1.082,1.031 -1.924,2.309 -2.438,3.712 -0.25,0.682 -0.422,1.392 -0.514,2.112 -0.047,0.372 -0.071,0.744 -0.078,1.118 C 32.201,29.969 32.187,34.984 32.192,40 l -2.084,0 z"
       style="fill:#ff2a2a"
       id="path3929"
       inkscape:connector-curvature="0" /></g><rect
     x="-8.0252829"
     y="16.324677"
     width="2.5268202"
     height="0.83097029"
     style="fill:#ff0000;fill-rule:nonzero"
     id="rect3931"
     transform="matrix(0.70710678,-0.70710678,0.70710678,0.70710678,0,0)" /><g
     transform="matrix(0.28208583,-0.28208583,0.28208583,0.28208583,-4.7785181,6.4502696)"
     id="g3933"
     style="fill:#ff0000"><path
       d="m 61.59,39.024 0,36.397 -39.607,0 0,-36.397 39.607,0 z m -19.506,8.455 c 0.82,0.016 1.629,0.174 2.388,0.484 1.44,0.589 2.644,1.695 3.353,3.079 0.281,0.549 0.483,1.137 0.6,1.742 0.131,0.684 0.152,1.39 0.062,2.082 -0.1,0.779 -0.343,1.538 -0.714,2.231 -0.298,0.559 -0.678,1.073 -1.123,1.523 -0.187,0.19 -0.387,0.365 -0.594,0.532 l -0.014,0.011 0,3.864 c -0.002,0.1 -0.002,0.1 -0.005,0.201 -0.011,0.17 -0.028,0.339 -0.058,0.507 -0.065,0.359 -0.178,0.709 -0.337,1.038 -0.338,0.702 -0.88,1.299 -1.546,1.703 -0.366,0.222 -0.767,0.386 -1.184,0.483 -0.4,0.092 -0.813,0.123 -1.222,0.091 -0.434,-0.033 -0.862,-0.136 -1.263,-0.306 -0.449,-0.19 -0.862,-0.462 -1.215,-0.798 -0.376,-0.359 -0.682,-0.789 -0.896,-1.262 -0.165,-0.364 -0.275,-0.753 -0.325,-1.15 -0.022,-0.169 -0.031,-0.337 -0.033,-0.507 l 0,-3.864 C 37.875,59.098 37.794,59.03 37.714,58.961 37.639,58.895 37.565,58.828 37.493,58.76 37.301,58.575 37.119,58.382 36.949,58.177 36.545,57.686 36.213,57.136 35.966,56.55 c -0.294,-0.7 -0.463,-1.451 -0.5,-2.21 -0.033,-0.683 0.04,-1.371 0.219,-2.031 0.174,-0.642 0.447,-1.255 0.805,-1.814 0.725,-1.13 1.795,-2.024 3.038,-2.532 0.733,-0.3 1.513,-0.457 2.304,-0.482 0.084,-0.002 0.168,-0.002 0.252,-0.002 z m -0.142,2.083 c -0.539,0.011 -1.073,0.111 -1.576,0.309 -1.089,0.43 -1.983,1.293 -2.453,2.366 -0.169,0.386 -0.282,0.796 -0.335,1.215 -0.064,0.497 -0.044,1.005 0.06,1.496 0.11,0.518 0.314,1.016 0.599,1.463 0.244,0.383 0.547,0.728 0.895,1.021 0.141,0.119 0.29,0.228 0.444,0.33 l 0.064,0.046 c 0.054,0.045 0.068,0.055 0.117,0.106 0.126,0.134 0.216,0.301 0.258,0.481 0.018,0.078 0.024,0.155 0.027,0.235 0,1.48 -0.018,2.961 0,4.441 0.01,0.261 0.065,0.516 0.172,0.754 0.236,0.521 0.7,0.923 1.25,1.079 0.207,0.059 0.423,0.083 0.637,0.072 0.211,-0.011 0.42,-0.055 0.616,-0.133 0.22,-0.087 0.424,-0.214 0.599,-0.373 0.186,-0.17 0.34,-0.375 0.45,-0.602 0.12,-0.25 0.181,-0.52 0.192,-0.797 0.018,-1.48 0,-2.961 0,-4.441 0.003,-0.07 0.002,-0.088 0.012,-0.157 0.028,-0.183 0.105,-0.357 0.221,-0.5 0.051,-0.062 0.108,-0.114 0.169,-0.165 0.097,-0.07 0.198,-0.136 0.295,-0.207 0.491,-0.371 0.907,-0.831 1.214,-1.366 0.266,-0.461 0.446,-0.97 0.532,-1.496 0.081,-0.498 0.077,-1.011 -0.012,-1.508 -0.074,-0.413 -0.207,-0.815 -0.394,-1.19 -0.472,-0.95 -1.284,-1.715 -2.261,-2.129 -0.496,-0.21 -1.024,-0.323 -1.561,-0.347 -0.077,-0.002 -0.154,-0.003 -0.231,-0.003 z"
       style="fill:#ff0000"
       id="path3935"
       inkscape:connector-curvature="0" /></g></svg>